<svg xmlns="http://www.w3.org/2000/svg" version="1.1" xmlns:xlink="http://www.w3.org/1999/xlink" xmlns:svgjs="http://svgjs.dev/svgjs" width="1000" height="1000" viewBox="0 0 1000 1000"><rect width="1000" height="1000" fill="#ffffff"></rect><g transform="matrix(0.7,0,0,0.7,149.57577772657083,430.2738882995325)"><svg viewBox="0 0 396 79" data-background-color="#ffffff" preserveAspectRatio="xMidYMid meet" height="199" width="1000" xmlns="http://www.w3.org/2000/svg" xmlns:xlink="http://www.w3.org/1999/xlink"><g id="tight-bounds" transform="matrix(1,0,0,1,0.23999140337934932,0.0431645681043733)"><svg viewBox="0 0 395.52 78.91366389181634" height="78.91366389181634" width="395.52"><g><svg viewBox="0 0 498.5536349458486 99.47080799999999" height="78.91366389181634" width="395.52"><g transform="matrix(1,0,0,1,103.03363494584862,24.40542997402597)"><svg viewBox="0 0 395.52 50.65994805194805" height="50.65994805194805" width="395.52"><g><svg viewBox="0 0 395.52 50.65994805194805" height="50.65994805194805" width="395.52"><g><svg viewBox="0 0 395.52 50.65994805194805" height="50.65994805194805" width="395.52"><g transform="matrix(1,0,0,1,0,0)"><svg width="395.52" viewBox="5.349999904632568 -38.599998474121094 307.97998046875 39.44999694824219" height="50.65994805194805" data-palette-color="#4a5c62"><path d="M28.3-33.55L10.2-33.55 10.2-20.55 25.8-20.55 25.8-16.2 10.2-16.2 10.2 0 5.35 0 5.35-37.9 28.3-37.9 28.3-33.55ZM51.55 0.85Q45.7 0.85 41.62-1.73 37.55-4.3 35.5-8.78 33.45-13.25 33.45-18.9L33.45-18.9Q33.45-24.45 35.5-28.9 37.55-33.35 41.62-35.98 45.7-38.6 51.55-38.6L51.55-38.6Q57.35-38.6 61.4-35.98 65.45-33.35 67.52-28.88 69.6-24.4 69.6-18.9L69.6-18.9Q69.6-13.25 67.55-8.78 65.5-4.3 61.42-1.73 57.35 0.85 51.55 0.85L51.55 0.85ZM51.55-3.4Q55.65-3.4 58.6-5.45 61.55-7.5 63.07-11.05 64.6-14.6 64.6-19.05L64.6-19.05Q64.6-23.35 63.05-26.83 61.5-30.3 58.55-32.33 55.6-34.35 51.55-34.35L51.55-34.35Q47.35-34.35 44.4-32.3 41.45-30.25 39.95-26.75 38.45-23.25 38.45-18.9L38.45-18.9Q38.45-14.45 39.95-10.95 41.45-7.45 44.4-5.43 47.35-3.4 51.55-3.4L51.55-3.4ZM87.95-23.15L106.84-23.15 106.84-2.65Q103.9-0.95 100.37-0.05 96.85 0.85 93.8 0.85L93.8 0.85Q87.8 0.85 83.62-1.63 79.45-4.1 77.35-8.55 75.25-13 75.25-18.9L75.25-18.9Q75.25-24.5 77.27-28.95 79.3-33.4 83.47-36 87.65-38.6 93.8-38.6L93.8-38.6Q97.1-38.6 99.37-37.98 101.65-37.35 104.5-36.1L104.5-36.1 104.5-31.5Q101.95-32.9 99.47-33.63 97-34.35 93.8-34.35L93.8-34.35Q89.55-34.35 86.5-32.4 83.45-30.45 81.85-26.98 80.25-23.5 80.25-19.05L80.25-19.05Q80.25-14.4 81.82-10.88 83.4-7.35 86.45-5.38 89.5-3.4 93.8-3.4L93.8-3.4Q95.95-3.4 97.9-3.9 99.85-4.4 102.05-5.3L102.05-5.3 102.05-18.8 87.95-18.8 87.95-23.15ZM132.39 0.85Q126.29 0.85 122.14-1.6 117.99-4.05 115.92-8.5 113.84-12.95 113.84-18.9L113.84-18.9Q113.84-24.5 115.89-28.95 117.94-33.4 122.12-36 126.29-38.6 132.39-38.6L132.39-38.6Q135.04-38.6 137.12-38.18 139.19-37.75 141.59-36.75L141.59-36.75 141.59-32.3Q137.34-34.35 132.49-34.35L132.49-34.35Q128.29-34.35 125.19-32.38 122.09-30.4 120.44-26.88 118.79-23.35 118.84-18.9L118.84-18.9Q118.84-14.3 120.44-10.8 122.04-7.3 125.09-5.35 128.14-3.4 132.39-3.4L132.39-3.4Q135.04-3.4 137.62-4.15 140.19-4.9 143.04-6.3L143.04-6.3 144.59-2.2Q141.69-0.7 138.49 0.08 135.29 0.85 132.39 0.85L132.39 0.85ZM165.94 0.85Q158.69 0.85 155.09-2.83 151.49-6.5 151.49-13.25L151.49-13.25 151.49-37.9 156.39-37.9 156.39-13.25Q156.39-8.4 158.79-5.9 161.19-3.4 165.94-3.4L165.94-3.4Q170.69-3.4 173.09-5.9 175.49-8.4 175.49-13.25L175.49-13.25 175.49-37.9 180.39-37.9 180.39-13.25Q180.39-6.5 176.79-2.83 173.19 0.85 165.94 0.85L165.94 0.85ZM215.24-37.9L215.24-33.55 203.84-33.55 203.84 0 198.94 0 198.94-33.55 187.54-33.55 187.54-37.9 215.24-37.9ZM246.94-37.9L246.94-33.55 235.54-33.55 235.54 0 230.64 0 230.64-33.55 219.24-33.55 219.24-37.9 246.94-37.9ZM259.13-4.2L277.48-4.2 277.48 0 254.28 0 254.28-37.9 277.23-37.9 277.23-33.7 259.13-33.7 259.13-21.15 274.73-21.15 274.73-16.95 259.13-16.95 259.13-4.2ZM307.78 0L298.03-16.05 290.68-16.05 290.68 0 285.83 0 285.83-37.9 299.08-37.9Q311.48-37.9 311.48-26.9L311.48-26.9Q311.48-22.55 309.41-19.88 307.33-17.2 303.18-16.4L303.18-16.4 313.33 0 307.78 0ZM290.68-33.65L290.68-20.3 299.08-20.3Q306.48-20.3 306.53-26.9L306.53-26.9Q306.53-30.4 304.68-32.02 302.83-33.65 299.08-33.65L299.08-33.65 290.68-33.65Z" opacity="1" transform="matrix(1,0,0,1,0,0)" fill="#000000" class="undefined-text-0" data-fill-palette-color="primary" id="text-0"></path></svg></g></svg></g></svg></g></svg></g><g><svg viewBox="0 0 91.07403704953693 99.47080799999999" height="99.47080799999999" width="91.07403704953693"><g><svg xmlns="http://www.w3.org/2000/svg" xmlns:xlink="http://www.w3.org/1999/xlink" version="1.1" x="0" y="0" viewBox="17.415752410888672 16.06312370300293 62.1452522277832 67.87487030029297" enable-background="new 0 0 100 100" xml:space="preserve" height="99.47080799999999" width="91.07403704953693" class="icon-icon-0" data-fill-palette-color="accent" id="icon-0"><path fill="#000000" d="M44.657 38.491c-1.18 0.006-2.295 0.472-3.142 1.311-0.845 0.839-1.317 1.949-1.333 3.129-0.015 1.18 0.43 2.287 1.253 3.117l6.846 6.899c0.822 0.831 1.926 1.284 3.105 1.277 1.18-0.005 2.294-0.471 3.14-1.309 0.847-0.839 1.319-1.95 1.334-3.13 0.016-1.181-0.429-2.288-1.253-3.116l-6.846-6.9C46.939 38.939 45.838 38.485 44.657 38.491zM53.024 47.61l-3.807 3.777-0.945-0.952 3.808-3.776L53.024 47.61zM50.486 45.052l-3.806 3.778-0.946-0.952 3.808-3.78L50.486 45.052zM47.948 42.494l-3.807 3.777-0.945-0.953 3.808-3.776L47.948 42.494z" data-fill-palette-color="accent"></path><path fill="#000000" d="M32.374 18.63c-3.421-3.422-8.97-3.423-12.391 0-3.423 3.421-3.423 8.97 0 12.392l39.169 39.17 18.768-6.017L32.374 18.63zM30.221 28.867c-1.588 1.587-4.161 1.587-5.747 0-1.589-1.586-1.589-4.16 0-5.747 1.586-1.588 4.159-1.588 5.745-0.001C31.808 24.707 31.807 27.28 30.221 28.867zM56.434 57.779l-3.228-3.229c-0.577 0.222-1.193 0.342-1.83 0.342-1.365 0-2.648-0.532-3.614-1.497l-6.783-6.783c-1.468-1.469-1.851-3.617-1.153-5.443l-4.694-4.694c-0.812-0.811-0.812-2.128 0-2.939 0.812-0.812 2.128-0.812 2.939 0l4.692 4.693c0.445-0.171 0.915-0.279 1.398-0.321 0.156-0.014 0.313-0.023 0.472-0.023 1.365 0 2.647 0.532 3.611 1.497l6.771 6.771c0.965 0.964 1.497 2.246 1.497 3.61 0 0.648-0.124 1.276-0.353 1.862l3.214 3.214c0.812 0.812 0.812 2.127 0 2.939C58.562 58.591 57.246 58.591 56.434 57.779z" data-fill-palette-color="accent"></path><path fill="#000000" d="M76.679 65.294l-15.508 5.002 2.604 2.604 5.523 5.522 5.516 5.516 4.747-15.762L76.679 65.294zM74.314 80.815c-0.074 0.076-0.172 0.114-0.27 0.114-0.094 0-0.188-0.035-0.261-0.105l-9.904-9.595c-0.149-0.145-0.152-0.382-0.009-0.53 0.146-0.149 0.383-0.152 0.53-0.009l9.904 9.595C74.455 80.43 74.458 80.667 74.314 80.815z" data-fill-palette-color="accent"></path></svg></g></svg></g></svg></g><defs></defs></svg><rect width="395.52" height="78.91366389181634" fill="none" stroke="none" visibility="hidden"></rect></g></svg></g></svg>